#Comment line ignore any data following # character 
#Hierarchical Translation and Rotation (.htr) file 
[Header]	
#Header keywords are followed by a single value 
FileType HTR		#Single word string
DataType HTRS		#Translation followed by rotation and scale data
FileVersion 1		#integer
NumSegments 84		#integer
NumFrames 2		#integer
DataFrameRate 30		#integer, data frame rate in this file
EulerRotationOrder ZYX
CalibrationUnits mm
RotationUnits Degrees
GlobalAxisofGravity Y
BoneLengthAxis Y
ScaleFactor 1.00
[SegmentNames&Hierarchy]
#CHILD	PARENT
MASTER GLOBAL
root MASTER
chest root
L_mid_tent01 root
R_mid_tent01 root
spine01 root
Bip01_Neck chest
L_humerus chest
R_humerus chest
weapon_bone chest
Bip01_Head Bip01_Neck
eye_left_bone Bip01_Head
eye_right_bone Bip01_Head
L_forearm L_humerus
L_front_hand L_forearm
L_weapon_bone L_forearm
L_front_hand01_01 L_front_hand
L_front_hand02_01 L_front_hand
L_front_hand03_01 L_front_hand
L_front_hand01_02 L_front_hand01_01
L_front_hand02_02 L_front_hand02_01
L_front_hand03_02 L_front_hand03_01
R_forearm R_humerus
R_front_hand R_forearm
R_weapon_bone R_forearm
R_front_hand01_01 R_front_hand
R_front_hand02_01 R_front_hand
R_front_hand03_01 R_front_hand
R_front_hand01_02 R_front_hand01_01
R_front_hand02_02 R_front_hand02_01
R_front_hand03_02 R_front_hand03_01
null_rope01_connect L_mid_tent01
Rope1_Seg01 null_rope01_connect
Rope1_Seg02 Rope1_Seg01
Rope1_Seg03 Rope1_Seg02
Rope1_Seg04 Rope1_Seg03
Rope1_Seg05 Rope1_Seg04
Rope1_Seg06 Rope1_Seg05
Rope1_Seg07 Rope1_Seg06
Rope1_Seg09 Rope1_Seg07
L_mid_hand01 Rope1_Seg09
L_mid_hand02 Rope1_Seg09
L_mid_hand03 Rope1_Seg09
null_rope02_connect R_mid_tent01
Rope2_Seg01 null_rope02_connect
Rope2_Seg02 Rope2_Seg01
Rope2_Seg03 Rope2_Seg02
Rope2_Seg04 Rope2_Seg03
Rope2_Seg05 Rope2_Seg04
Rope2_Seg06 Rope2_Seg05
Rope2_Seg07 Rope2_Seg06
Rope2_Seg09 Rope2_Seg07
R_mid_hand01 Rope2_Seg09
R_mid_hand02 Rope2_Seg09
R_mid_hand03 Rope2_Seg09
spine02 spine01
spine03 spine02
pelvis spine03
null_rope03_connect pelvis
null_rope04_connect pelvis
Rope3_Seg01 null_rope03_connect
Rope3_Seg02 Rope3_Seg01
Rope3_Seg03 Rope3_Seg02
Rope3_Seg04 Rope3_Seg03
Rope3_Seg05 Rope3_Seg04
Rope3_Seg06 Rope3_Seg05
Rope3_Seg07 Rope3_Seg06
Rope3_Seg08 Rope3_Seg07
Rope3_Seg09 Rope3_Seg08
R_rear_hand01 Rope3_Seg09
R_rear_hand02 Rope3_Seg09
R_rear_hand03 Rope3_Seg09
Rope4_Seg01 null_rope04_connect
Rope4_Seg02 Rope4_Seg01
Rope4_Seg03 Rope4_Seg02
Rope4_Seg04 Rope4_Seg03
Rope4_Seg05 Rope4_Seg04
Rope4_Seg06 Rope4_Seg05
Rope4_Seg07 Rope4_Seg06
Rope4_Seg08 Rope4_Seg07
Rope4_Seg09 Rope4_Seg08
L_rear_hand01 Rope4_Seg09
L_rear_hand02 Rope4_Seg09
L_rear_hand03 Rope4_Seg09
[BasePosition]
#SegmentName Tx, Ty, Tz, Rx, Ry, Rz, BoneLength
MASTER 0.000000 0.000000 0.000000 -90.000000 0.000000 0.000000 10.000000 
root 0.000000 0.000000 0.000000 0.000000 0.000000 0.000000 10.000000 
chest 0.000000 0.000000 0.000000 0.000000 0.000000 0.000000 10.000000 
L_mid_tent01 0.000000 0.000000 0.000000 0.000000 0.000000 0.000000 10.000000 
R_mid_tent01 0.000000 0.000000 0.000000 0.000000 0.000000 0.000000 10.000000 
spine01 0.000000 0.000000 0.000000 0.000000 0.000000 0.000000 10.000000 
Bip01_Neck 0.000000 0.000000 0.000000 0.000000 0.000000 0.000000 10.000000 
L_humerus 0.000000 0.000000 0.000000 0.000000 0.000000 0.000000 10.000000 
R_humerus 0.000000 0.000000 0.000000 0.000000 0.000000 0.000000 10.000000 
weapon_bone 0.000000 0.000000 0.000000 0.000000 0.000000 0.000000 10.000000 
Bip01_Head 0.000000 0.000000 0.000000 0.000000 0.000000 0.000000 10.000000 
eye_left_bone 0.000000 0.000000 0.000000 0.000000 0.000000 0.000000 10.000000 
eye_right_bone 0.000000 0.000000 0.000000 0.000000 0.000000 0.000000 10.000000 
L_forearm 0.000000 0.000000 0.000000 0.000000 0.000000 0.000000 10.000000 
L_front_hand 0.000000 0.000000 0.000000 0.000000 0.000000 0.000000 10.000000 
L_weapon_bone 0.000000 0.000000 0.000000 0.000000 0.000000 0.000000 10.000000 
L_front_hand01_01 0.000000 0.000000 0.000000 0.000000 0.000000 0.000000 10.000000 
L_front_hand02_01 0.000000 0.000000 0.000000 0.000000 0.000000 0.000000 10.000000 
L_front_hand03_01 0.000000 0.000000 0.000000 0.000000 0.000000 0.000000 10.000000 
L_front_hand01_02 0.000000 0.000000 0.000000 0.000000 0.000000 0.000000 10.000000 
L_front_hand02_02 0.000000 0.000000 0.000000 0.000000 0.000000 0.000000 10.000000 
L_front_hand03_02 0.000000 0.000000 0.000000 0.000000 0.000000 0.000000 10.000000 
R_forearm 0.000000 0.000000 0.000000 0.000000 0.000000 0.000000 10.000000 
R_front_hand 0.000000 0.000000 0.000000 0.000000 0.000000 0.000000 10.000000 
R_weapon_bone 0.000000 0.000000 0.000000 0.000000 0.000000 0.000000 10.000000 
R_front_hand01_01 0.000000 0.000000 0.000000 0.000000 0.000000 0.000000 10.000000 
R_front_hand02_01 0.000000 0.000000 0.000000 0.000000 0.000000 0.000000 10.000000 
R_front_hand03_01 0.000000 0.000000 0.000000 0.000000 0.000000 0.000000 10.000000 
R_front_hand01_02 0.000000 0.000000 0.000000 0.000000 0.000000 0.000000 10.000000 
R_front_hand02_02 0.000000 0.000000 0.000000 0.000000 0.000000 0.000000 10.000000 
R_front_hand03_02 0.000000 0.000000 0.000000 0.000000 0.000000 0.000000 10.000000 
null_rope01_connect 0.000000 0.000000 0.000000 0.000000 0.000000 0.000000 10.000000 
Rope1_Seg01 0.000000 0.000000 0.000000 0.000000 0.000000 0.000000 10.000000 
Rope1_Seg02 0.000000 0.000000 0.000000 0.000000 0.000000 0.000000 10.000000 
Rope1_Seg03 0.000000 0.000000 0.000000 0.000000 0.000000 0.000000 10.000000 
Rope1_Seg04 0.000000 0.000000 0.000000 0.000000 0.000000 0.000000 10.000000 
Rope1_Seg05 0.000000 0.000000 0.000000 0.000000 0.000000 0.000000 10.000000 
Rope1_Seg06 0.000000 0.000000 0.000000 0.000000 0.000000 0.000000 10.000000 
Rope1_Seg07 0.000000 0.000000 0.000000 0.000000 0.000000 0.000000 10.000000 
Rope1_Seg09 0.000000 0.000000 0.000000 0.000000 0.000000 0.000000 10.000000 
L_mid_hand01 0.000000 0.000000 0.000000 0.000000 0.000000 0.000000 10.000000 
L_mid_hand02 0.000000 0.000000 0.000000 0.000000 0.000000 0.000000 10.000000 
L_mid_hand03 0.000000 0.000000 0.000000 0.000000 0.000000 0.000000 10.000000 
null_rope02_connect 0.000000 0.000000 0.000000 0.000000 0.000000 0.000000 10.000000 
Rope2_Seg01 0.000000 0.000000 0.000000 0.000000 0.000000 0.000000 10.000000 
Rope2_Seg02 0.000000 0.000000 0.000000 0.000000 0.000000 0.000000 10.000000 
Rope2_Seg03 0.000000 0.000000 0.000000 0.000000 0.000000 0.000000 10.000000 
Rope2_Seg04 0.000000 0.000000 0.000000 0.000000 0.000000 0.000000 10.000000 
Rope2_Seg05 0.000000 0.000000 0.000000 0.000000 0.000000 0.000000 10.000000 
Rope2_Seg06 0.000000 0.000000 0.000000 0.000000 0.000000 0.000000 10.000000 
Rope2_Seg07 0.000000 0.000000 0.000000 0.000000 0.000000 0.000000 10.000000 
Rope2_Seg09 0.000000 0.000000 0.000000 0.000000 0.000000 0.000000 10.000000 
R_mid_hand01 0.000000 0.000000 0.000000 0.000000 0.000000 0.000000 10.000000 
R_mid_hand02 0.000000 0.000000 0.000000 0.000000 0.000000 0.000000 10.000000 
R_mid_hand03 0.000000 0.000000 0.000000 0.000000 0.000000 0.000000 10.000000 
spine02 0.000000 0.000000 0.000000 0.000000 0.000000 0.000000 10.000000 
spine03 0.000000 0.000000 0.000000 0.000000 0.000000 0.000000 10.000000 
pelvis 0.000000 0.000000 0.000000 0.000000 0.000000 0.000000 10.000000 
null_rope03_connect 0.000000 0.000000 0.000000 0.000000 0.000000 0.000000 10.000000 
null_rope04_connect 0.000000 0.000000 0.000000 0.000000 0.000000 0.000000 10.000000 
Rope3_Seg01 0.000000 0.000000 0.000000 0.000000 0.000000 0.000000 10.000000 
Rope3_Seg02 0.000000 0.000000 0.000000 0.000000 0.000000 0.000000 10.000000 
Rope3_Seg03 0.000000 0.000000 0.000000 0.000000 0.000000 0.000000 10.000000 
Rope3_Seg04 0.000000 0.000000 0.000000 0.000000 0.000000 0.000000 10.000000 
Rope3_Seg05 0.000000 0.000000 0.000000 0.000000 0.000000 0.000000 10.000000 
Rope3_Seg06 0.000000 0.000000 0.000000 0.000000 0.000000 0.000000 10.000000 
Rope3_Seg07 0.000000 0.000000 0.000000 0.000000 0.000000 0.000000 10.000000 
Rope3_Seg08 0.000000 0.000000 0.000000 0.000000 0.000000 0.000000 10.000000 
Rope3_Seg09 0.000000 0.000000 0.000000 0.000000 0.000000 0.000000 10.000000 
R_rear_hand01 0.000000 0.000000 0.000000 0.000000 0.000000 0.000000 10.000000 
R_rear_hand02 0.000000 0.000000 0.000000 0.000000 0.000000 0.000000 10.000000 
R_rear_hand03 0.000000 0.000000 0.000000 0.000000 0.000000 0.000000 10.000000 
Rope4_Seg01 0.000000 0.000000 0.000000 0.000000 0.000000 0.000000 10.000000 
Rope4_Seg02 0.000000 0.000000 0.000000 0.000000 0.000000 0.000000 10.000000 
Rope4_Seg03 0.000000 0.000000 0.000000 0.000000 0.000000 0.000000 10.000000 
Rope4_Seg04 0.000000 0.000000 0.000000 0.000000 0.000000 0.000000 10.000000 
Rope4_Seg05 0.000000 0.000000 0.000000 0.000000 0.000000 0.000000 10.000000 
Rope4_Seg06 0.000000 0.000000 0.000000 0.000000 0.000000 0.000000 10.000000 
Rope4_Seg07 0.000000 0.000000 0.000000 0.000000 0.000000 0.000000 10.000000 
Rope4_Seg08 0.000000 0.000000 0.000000 0.000000 0.000000 0.000000 10.000000 
Rope4_Seg09 0.000000 0.000000 0.000000 0.000000 0.000000 0.000000 10.000000 
L_rear_hand01 0.000000 0.000000 0.000000 0.000000 0.000000 0.000000 10.000000 
L_rear_hand02 0.000000 0.000000 0.000000 0.000000 0.000000 0.000000 10.000000 
L_rear_hand03 0.000000 0.000000 0.000000 0.000000 0.000000 0.000000 10.000000 
#Beginning of Data. Separated by tabs
#Fr	Tx	Ty	Tz	Rx	Ry	Rz	SF
[MASTER]
3 0.000000 0.000000 0.000000 0.001660 0.001660 0.001660 0.000000
4 0.000000 0.000000 0.000000 0.001660 0.001660 0.001660 0.000000
[root]
3 32.803398 -60.643337 1387.658936 -98.298157 -23.794329 -71.439171 1389.370728
4 57.189972 -116.655006 1351.602173 -104.380753 -32.348438 -66.011810 1357.831909
[chest]
3 -84.512650 -34.090519 0.000000 -2.140957 -0.009248 167.926392 91.129311
4 -84.512650 -34.090519 0.000000 -2.131108 -0.010428 167.807037 91.129311
[L_mid_tent01]
3 27.299082 22.179249 -249.918686 -48.123234 44.732662 12.337277 252.381683
4 27.299084 22.179245 -249.918686 -75.236748 63.687145 0.776608 252.381683
[R_mid_tent01]
3 23.228794 24.509907 226.238495 -142.663025 -37.664879 17.730953 228.744751
4 23.228794 24.509907 226.238495 -123.938156 -49.467270 10.100317 228.744751
[spine01]
3 -0.361383 -0.195265 0.000000 -0.000001 -0.000007 22.052340 0.410763
4 -0.361383 -0.195265 0.000000 -0.000001 -0.000007 22.052340 0.410763
[Bip01_Neck]
3 165.484543 71.581718 0.000119 175.896118 1.177290 24.871181 180.302734
4 165.484543 71.581718 0.000119 175.896118 1.177290 24.871180 180.302734
[L_humerus]
3 -13.983130 -135.272980 -120.471481 -62.321831 51.592510 36.007668 181.680161
4 -13.983130 -135.272980 -120.471481 -81.950661 41.464802 21.339943 181.680161
[R_humerus]
3 -13.983309 -135.273102 125.287651 94.586632 -44.367229 15.162759 184.909012
4 -13.983309 -135.273102 125.287651 115.229347 -27.395550 2.846395 184.909012
[weapon_bone]
3 235.964890 -300.705902 0.000000 0.000000 -89.951546 -128.212341 382.234833
4 235.964890 -300.705902 0.000000 0.000000 -89.951546 -128.212341 382.234833
[Bip01_Head]
3 196.969391 97.785721 4.623389 2.500722 1.304630 -61.463406 219.955353
4 188.391876 65.365036 2.065942 2.424669 1.114982 -59.735512 199.420044
[eye_left_bone]
3 27.948048 156.420135 -74.676010 -104.435204 -85.628746 4.938274 175.570099
4 28.823092 156.889450 -74.729515 -104.776428 -85.668037 5.280380 176.152130
[eye_right_bone]
3 37.940521 157.322739 54.025505 75.572060 -85.625298 4.933891 170.612671
4 38.653259 157.730148 54.009556 75.256905 -85.667404 5.250183 171.142944
[L_forearm]
3 322.776093 0.000000 -0.000119 0.000066 0.002346 -86.785332 322.776093
4 322.776093 0.000000 -0.000119 0.000365 0.002319 -72.108086 322.776093
[L_front_hand]
3 241.149185 -0.042021 -3.300071 -178.189133 -1.368401 -44.335133 241.171753
4 241.149185 -0.042021 -3.300071 -177.952988 -0.982762 -55.839176 241.171753
[L_weapon_bone]
3 156.183838 0.000000 0.000000 0.000014 0.000007 0.000001 156.183838
4 156.183838 0.000000 0.000000 0.000014 0.000007 0.000001 156.183838
[L_front_hand01_01]
3 86.095154 20.947098 -0.655860 -0.366594 -0.477154 75.385574 88.609184
4 86.095154 20.947098 -0.655860 -0.366594 -0.477154 75.385582 88.609184
[L_front_hand02_01]
3 86.935165 -11.437475 24.513514 154.399811 -59.883842 -61.369598 91.046425
4 86.935165 -11.437475 24.513514 154.399796 -59.883835 -61.369587 91.046425
[L_front_hand03_01]
3 86.637497 -14.123976 -20.424902 -153.913849 58.118122 -62.702850 90.126129
4 86.637497 -14.123976 -20.424902 -153.913849 58.118122 -62.702866 90.126129
[L_front_hand01_02]
3 71.020905 -0.000179 0.000030 0.000334 -0.002323 -106.379684 71.020905
4 71.020905 -0.000179 0.000030 0.000334 -0.002323 -106.379684 71.020905
[L_front_hand02_02]
3 71.020927 -0.000119 0.000060 0.000334 -0.002323 -106.379684 71.020927
4 71.020927 -0.000119 0.000060 0.000334 -0.002323 -106.379684 71.020927
[L_front_hand03_02]
3 71.020905 -0.000060 0.000060 0.000334 -0.002323 -106.379684 71.020905
4 71.020905 -0.000060 0.000060 0.000334 -0.002323 -106.379684 71.020905
[R_forearm]
3 322.776428 -0.000060 0.000030 0.202738 -0.063153 -73.071747 322.776428
4 322.776428 -0.000060 0.000030 0.166445 -0.130716 -52.968548 322.776428
[R_front_hand]
3 238.847015 -0.006795 2.210259 -2.635298 -10.645462 -26.312506 238.857239
4 238.847015 -0.006795 2.210259 -2.635298 -10.645462 -26.312506 238.857239
[R_weapon_bone]
3 155.664093 0.002503 -0.000030 0.003487 0.001180 -90.988930 155.664078
4 155.664093 0.002503 -0.000030 0.003487 0.001180 -90.988930 155.664078
[R_front_hand01_01]
3 87.624611 14.231146 22.918642 -154.633499 -59.950619 61.746044 91.683487
4 87.624611 14.231146 22.918642 -154.633484 -59.950607 61.746033 91.683487
[R_front_hand02_01]
3 89.356956 14.367283 -19.491137 154.602661 58.302849 63.744389 92.579636
4 89.356956 14.367283 -19.491137 154.602661 58.302864 63.744381 92.579636
[R_front_hand03_01]
3 87.286232 -22.307278 -0.143439 0.162155 -0.423168 -75.767921 90.091743
4 87.286232 -22.307278 -0.143439 0.162155 -0.423168 -75.767906 90.091743
[R_front_hand01_02]
3 71.020905 0.000060 0.000119 0.002323 -0.000334 106.381721 71.020905
4 71.020905 0.000060 0.000119 0.002323 -0.000334 106.381714 71.020905
[R_front_hand02_02]
3 71.020844 -0.000030 -0.000119 0.002323 -0.000334 106.381721 71.020836
4 71.020844 -0.000030 -0.000119 0.002323 -0.000334 106.381714 71.020836
[R_front_hand03_02]
3 71.020905 0.000000 0.000030 0.002323 -0.000334 106.381721 71.020905
4 71.020905 0.000000 0.000030 0.002323 -0.000334 106.381714 71.020905
[null_rope01_connect]
3 328.732483 0.000000 -0.000238 -144.758560 -32.197392 -123.957062 328.732483
4 328.732483 0.000000 -0.000238 -135.393005 -9.455013 -134.359711 328.732483
[Rope1_Seg01]
3 0.000000 0.000000 0.000000 -5.555306 -14.363000 -66.546684 0.000000
4 0.000000 0.000000 0.000000 -10.884554 -17.499624 -52.912170 0.000000
[Rope1_Seg02]
3 139.999863 -0.000179 0.000000 5.233248 -5.803168 -8.256273 139.999863
4 139.999863 -0.000179 0.000000 2.013996 -5.031516 -5.966507 139.999863
[Rope1_Seg03]
3 139.999924 0.000060 -0.000060 7.712066 -8.318307 -10.487419 139.999924
4 139.999924 0.000060 -0.000060 3.551177 -7.976270 -8.949347 139.999924
[Rope1_Seg04]
3 139.999924 -0.000060 -0.000119 11.139744 -11.948003 -13.401180 139.999924
4 139.999924 -0.000060 -0.000119 7.786456 -12.798863 -16.836445 139.999924
[Rope1_Seg05]
3 139.999832 0.000119 -0.000060 1.855994 -5.557812 0.461256 139.999832
4 139.999832 0.000119 -0.000060 8.327247 -16.141111 -14.416938 139.999832
[Rope1_Seg06]
3 139.999954 0.000119 -0.000060 -1.393539 -0.288436 5.457797 139.999954
4 139.999954 0.000119 -0.000060 0.148828 -11.325698 5.938598 139.999954
[Rope1_Seg07]
3 139.999985 0.000060 0.000000 0.076415 -1.938508 1.721777 139.999985
4 139.999985 0.000060 0.000000 -0.581500 -8.717003 6.731039 139.999985
[Rope1_Seg09]
3 121.602913 0.000119 -0.000089 -89.790619 -1.359656 0.847385 121.602913
4 121.602913 0.000119 -0.000089 -89.790619 -1.359656 0.847385 121.602913
[L_mid_hand01]
3 103.859421 1.038730 8.195221 106.042580 -26.207779 -7.767942 104.187431
4 103.859421 1.038730 8.195221 105.417549 -21.185928 -6.225375 104.187431
[L_mid_hand02]
3 105.572853 -4.139662 -10.864139 -140.493759 22.478060 -24.283102 106.211075
4 105.572853 -4.139662 -10.864139 -138.980621 19.105467 -20.026217 106.211075
[L_mid_hand03]
3 104.641464 17.579376 -3.913581 -16.918470 8.243919 29.133947 106.179977
4 104.641464 17.579376 -3.913581 -17.573988 6.692881 24.105686 106.179977
[null_rope02_connect]
3 328.732849 0.000179 -0.000119 -122.936440 31.884716 -19.225941 328.732849
4 328.732849 0.000179 -0.000119 -121.724220 15.167475 -15.157240 328.732849
[Rope2_Seg01]
3 0.000095 0.000153 0.000004 -11.561452 -6.091270 -24.083225 0.000180
4 0.000095 0.000153 0.000006 -52.556301 14.151076 13.890502 0.000180
[Rope2_Seg02]
3 139.999741 -0.000060 -0.000119 -8.021010 15.559298 -4.889381 139.999756
4 139.999741 -0.000060 -0.000119 -10.100325 20.068935 0.463658 139.999756
[Rope2_Seg03]
3 140.000107 0.000030 0.000000 58.842182 -0.324371 -15.970249 140.000107
4 140.000107 0.000030 0.000000 -11.401218 24.919357 -9.945086 140.000107
[Rope2_Seg04]
3 139.999802 0.000000 -0.000060 13.427821 -7.395812 -2.711567 139.999802
4 139.999802 0.000000 -0.000060 -13.062941 4.938523 -0.853066 139.999802
[Rope2_Seg05]
3 139.999985 -0.000060 0.000119 3.978769 -3.297604 -0.627792 139.999985
4 139.999985 -0.000060 0.000119 -0.037909 0.001668 0.001665 139.999985
[Rope2_Seg06]
3 139.999893 -0.000030 -0.000119 1.482980 -1.509547 -0.181113 139.999893
4 139.999893 -0.000030 -0.000119 -0.047798 0.001661 0.001659 139.999893
[Rope2_Seg07]
3 139.999893 0.000060 -0.000060 0.150066 -0.210981 -0.018397 139.999893
4 139.999893 0.000060 -0.000060 -0.052743 0.001660 0.001659 139.999893
[Rope2_Seg09]
3 121.338966 0.000089 -0.000060 33.793236 -1.359788 -0.847141 121.338966
4 121.338966 0.000089 -0.000060 33.793236 -1.359788 -0.847141 121.338966
[R_mid_hand01]
3 104.680779 11.144459 -10.335981 -43.389069 21.487944 23.909441 105.778534
4 104.680779 11.144459 -10.335981 -44.968380 17.106186 19.135353 105.778534
[R_mid_hand02]
3 104.070427 2.443552 8.231699 73.809685 -27.165421 8.087244 104.424065
4 104.070427 2.443552 8.231699 74.578720 -21.119291 6.210459 104.424065
[R_mid_hand03]
3 106.028137 -11.221827 -5.996406 -166.934555 8.989377 -31.243221 106.788818
4 106.028137 -11.221827 -5.996406 -166.046585 7.519541 -25.068808 106.788818
[spine02]
3 129.756927 0.001550 0.000119 0.822654 -3.977809 -19.545139 129.756927
4 129.756927 0.001550 0.000119 1.006547 -3.934618 -22.218094 129.756927
[spine03]
3 78.614067 0.081635 -4.899006 -0.505273 4.247393 -16.655054 78.766602
4 78.614067 0.081635 -4.899007 -1.933370 3.811520 -36.781746 78.766602
[pelvis]
3 169.435242 0.051022 0.000000 -0.061029 -0.180035 14.446795 169.435257
4 169.435242 0.051022 0.000000 -0.061245 -0.179962 14.583914 169.435257
[null_rope03_connect]
3 -1.257226 -2.466202 137.391083 111.843124 -73.166977 2.713078 137.418976
4 -1.257226 -2.466202 137.391083 122.906769 -70.030640 24.117199 137.418976
[null_rope04_connect]
3 -1.259640 -2.480268 -137.844437 111.843124 -73.166977 2.713078 137.872513
4 -1.259640 -2.480268 -137.844437 122.906769 -70.030640 24.117199 137.872513
[Rope3_Seg01]
3 0.000010 0.000036 -0.000144 -134.925385 34.067547 -80.804886 0.000149
4 0.000010 0.000035 -0.000140 -133.518417 24.077318 -81.829605 0.000144
[Rope3_Seg02]
3 139.999924 -0.000119 0.000060 0.374295 -0.722161 -4.156086 139.999924
4 139.999924 -0.000119 0.000060 0.158771 -1.503258 -2.923890 139.999924
[Rope3_Seg03]
3 139.999924 -0.000119 0.000119 0.315108 -1.071446 -5.973712 139.999924
4 139.999924 -0.000119 0.000119 0.175449 -2.100410 -4.078348 139.999924
[Rope3_Seg04]
3 139.999924 0.000119 0.000000 -0.022722 -2.186156 -10.668262 139.999924
4 139.999924 0.000119 0.000000 0.144701 -3.150856 -6.095627 139.999924
[Rope3_Seg05]
3 139.999924 -0.000238 0.000060 -2.346218 -5.943774 -26.313759 139.999924
4 139.999924 -0.000238 0.000060 1.302047 -9.642506 -16.900345 139.999924
[Rope3_Seg06]
3 139.999893 -0.000119 -0.000060 0.317452 4.072460 5.255591 139.999893
4 139.999893 -0.000119 -0.000060 -0.059288 -8.245017 -16.974571 139.999893
[Rope3_Seg07]
3 139.999771 0.000060 -0.000119 2.711915 5.560551 16.443829 139.999771
4 139.999771 0.000060 -0.000119 1.103509 11.967166 15.209242 139.999771
[Rope3_Seg08]
3 139.999985 -0.000060 0.000000 0.687516 2.036156 4.056051 139.999985
4 139.999985 -0.000060 0.000000 0.677274 5.873250 7.355896 139.999985
[Rope3_Seg09]
3 90.185997 -0.000179 -0.000060 75.214157 -1.361875 -0.847200 90.185997
4 90.185997 -0.000179 -0.000060 63.441067 -1.359970 -0.844495 90.185997
[R_rear_hand01]
3 103.366196 -6.073594 -10.757982 -160.005554 14.750708 -24.383490 104.101845
4 103.366196 -6.073594 -10.757982 -158.724411 12.779007 -19.005732 104.101845
[R_rear_hand02]
3 100.509819 12.039542 -7.992327 -35.793762 15.947124 23.882643 101.543350
4 100.509819 12.039542 -7.992327 -36.941399 12.636292 19.237955 101.543350
[R_rear_hand03]
3 101.539970 5.215704 5.435467 83.712227 -25.154428 6.543104 101.819031
4 101.539970 5.215704 5.435467 83.961388 -19.601210 5.895136 101.819031
[Rope4_Seg01]
3 0.000010 0.000038 -0.000114 57.273357 28.321199 -82.002647 0.000121
4 0.000010 0.000038 -0.000114 53.436867 17.493341 -77.253044 0.000121
[Rope4_Seg02]
3 139.999985 0.000060 0.000119 -1.328028 -4.292835 1.273986 139.999985
4 139.999985 0.000060 0.000119 -0.767015 -5.351583 -0.715084 139.999985
[Rope4_Seg03]
3 139.999924 0.000000 -0.000238 -1.518692 -6.098144 1.667612 139.999924
4 139.999924 0.000000 -0.000238 -0.715109 -7.662663 -1.140122 139.999924
[Rope4_Seg04]
3 139.999985 0.000000 0.000119 -2.683126 -15.566461 4.508593 139.999985
4 139.999985 0.000000 0.000119 -0.381943 -17.910652 -2.141253 139.999985
[Rope4_Seg05]
3 139.999802 -0.000060 -0.000119 -0.138035 -8.536572 1.207213 139.999802
4 139.999802 -0.000060 -0.000119 1.153892 -15.152266 -2.996112 139.999802
[Rope4_Seg06]
3 139.999924 0.000000 0.000060 0.172127 16.507975 -5.787888 139.999924
4 139.999924 0.000000 0.000060 -1.418051 19.088314 -1.254905 139.999924
[Rope4_Seg07]
3 139.999802 0.000000 0.000000 1.003044 5.588370 -2.212483 139.999802
4 139.999802 0.000000 0.000000 0.542261 10.375521 -0.664217 139.999802
[Rope4_Seg08]
3 139.999924 0.000000 0.000119 -0.849253 2.802345 -1.211432 139.999924
4 139.999924 0.000000 0.000119 -0.931972 4.776347 -0.547071 139.999924
[Rope4_Seg09]
3 90.185791 0.000060 0.000060 -148.572083 2.230522 0.850316 90.185791
4 90.185791 0.000060 0.000060 -159.294357 2.231015 0.851811 90.185791
[L_rear_hand01]
3 101.696655 -8.392275 -7.654577 -36.065723 -15.249181 157.123398 102.329041
4 101.696655 -8.392275 -7.654577 -37.242527 -11.574301 162.196594 102.329041
[L_rear_hand02]
3 102.726799 -1.568258 5.773216 83.777115 23.970695 173.600632 102.900848
4 102.726799 -1.568258 5.773216 84.022964 17.852329 174.296112 102.900848
[L_rear_hand03]
3 104.552910 9.721220 -10.420293 -159.714264 -14.341211 -156.771698 105.519653
4 104.552910 9.721220 -10.420293 -158.362930 -12.135302 -162.671356 105.519653
